<?xml version="1.0" encoding="UTF-8" standalone="no"?>
<!DOCTYPE svg PUBLIC "-//W3C//DTD SVG 1.1//EN" "http://www.w3.org/Graphics/SVG/1.1/DTD/svg11.dtd">
<svg width="100%" height="100%" viewBox="0 0 37 37" version="1.1" xmlns="http://www.w3.org/2000/svg" xmlns:xlink="http://www.w3.org/1999/xlink" xml:space="preserve" xmlns:serif="http://www.serif.com/" style="fill-rule:evenodd;clip-rule:evenodd;stroke-linejoin:round;stroke-miterlimit:2;">
    <g transform="matrix(1,0,0,1,-1549.08268,-6975.009441)">
        <g id="facebook-copy" serif:id="facebook copy">
            <path id="icon-back-copy-9" serif:id="icon back copy 9" d="M1567.558,6975.009C1577.762,6975.009 1586.034,6983.282 1586.034,6993.484C1586.034,7003.689 1577.762,7011.962 1567.558,7011.962C1557.354,7011.962 1549.083,7003.689 1549.083,6993.484C1549.083,6983.282 1557.354,6975.009 1567.558,6975.009Z" style="fill:rgb(25,27,45);"/>
            <path id="Shape-11" serif:id="Shape 11" d="M1568.27,7002.894L1568.092,7002.894C1566.694,7002.898 1565.214,7002.863 1563.957,7002.786C1562.805,7002.715 1561.754,7002.316 1560.916,7001.634C1560.108,7000.974 1559.556,7000.084 1559.276,6998.986C1559.032,6998.029 1559.019,6997.091 1559.007,6996.183C1558.998,6995.532 1558.989,6994.76 1558.987,6993.975C1558.989,6993.187 1558.998,6992.416 1559.007,6991.764C1559.019,6990.856 1559.032,6989.841 1559.276,6988.885C1559.556,6987.787 1560.108,6986.896 1560.916,6986.237C1561.754,6985.554 1562.805,6985.155 1563.957,6985.085C1565.214,6985.009 1566.694,6984.973 1568.095,6984.977C1569.494,6984.973 1570.786,6985.009 1572.042,6985.085C1573.194,6985.155 1574.245,6985.554 1575.083,6986.237C1575.891,6986.896 1576.443,6987.787 1576.723,6988.885C1576.967,6989.841 1576.98,6990.856 1576.993,6991.764C1577.001,6992.416 1577.011,6993.187 1577.013,6993.972C1577.011,6994.76 1577.001,6995.532 1576.993,6996.183C1576.987,6996.568 1576.246,6996.876 1575.863,6996.87C1575.478,6996.864 1575.17,6996.55 1575.175,6996.164C1575.184,6995.516 1575.193,6994.75 1575.195,6993.972C1575.193,6993.197 1575.184,6992.431 1575.175,6991.783C1575.164,6990.957 1575.152,6990.41 1574.949,6989.614C1574.744,6988.811 1574.351,6988.168 1573.779,6987.701C1573.16,6987.197 1572.405,6986.914 1571.534,6986.861C1570.307,6986.786 1569.468,6986.753 1568.095,6986.756C1566.72,6986.753 1565.654,6986.786 1564.427,6986.861C1563.556,6986.914 1562.801,6987.197 1562.182,6987.701C1561.61,6988.168 1561.217,6988.811 1561.012,6989.614C1560.809,6990.41 1560.797,6990.957 1560.786,6991.783C1560.777,6992.431 1560.768,6993.197 1560.766,6993.975C1560.768,6994.75 1560.777,6995.055 1560.786,6995.701C1560.797,6996.529 1560.809,6997.382 1561.012,6998.178C1561.217,6998.981 1561.61,6999.625 1562.182,7000.093C1562.801,7000.596 1563.556,7000.878 1564.427,7000.932C1565.654,7001.007 1566.297,7001.041 1567.668,7001.037C1569.044,7001.041 1570.307,7001.007 1571.534,7000.932C1572.405,7000.878 1573.16,7000.596 1573.779,7000.093C1574.191,6999.756 1574.512,6999.324 1574.735,6998.81C1574.888,6998.457 1575.298,6998.756 1575.652,6998.909C1576.005,6999.063 1576.591,6999.472 1576.438,6999.826C1576.126,7000.547 1575.67,7001.155 1575.083,7001.634C1574.245,7002.316 1573.194,7002.715 1572.042,7002.786C1570.839,7002.859 1569.603,7002.894 1568.27,7002.894ZM1571.028,6993.97C1571.028,6992.333 1569.697,6991.003 1568.06,6991.003C1566.424,6991.003 1565.092,6992.333 1565.092,6993.97C1565.092,6995.607 1566.424,6996.94 1568.06,6996.94C1569.697,6996.94 1571.028,6995.607 1571.028,6993.97ZM1569.574,6993.969C1569.574,6994.803 1568.895,6995.483 1568.061,6995.483C1567.227,6995.483 1566.548,6994.803 1566.548,6993.969C1566.548,6993.135 1567.227,6992.456 1568.061,6992.456C1568.895,6992.456 1569.574,6993.135 1569.574,6993.969ZM1571.999,6988.973C1571.422,6988.973 1570.954,6989.442 1570.954,6990.018C1570.954,6990.595 1571.422,6991.064 1571.999,6991.064C1572.576,6991.064 1573.044,6990.595 1573.044,6990.018C1573.044,6989.442 1572.576,6988.973 1571.999,6988.973Z" style="fill:rgb(107,109,119);fill-rule:nonzero;"/>
        </g>
    </g>
</svg>
